<svg width="512" height="512" viewBox="0 0 512 512" fill="none" xmlns="http://www.w3.org/2000/svg">
  <rect width="512" height="512" rx="128" fill="#1E3A8A"/>
  <path d="M256 100C170.1 100 100 170.1 100 256C100 341.9 170.1 412 256 412C341.9 412 412 341.9 412 256C412 170.1 341.9 100 256 100ZM256 376C189.9 376 136 322.1 136 256C136 189.9 189.9 136 256 136C322.1 136 376 189.9 376 256C376 322.1 322.1 376 256 376Z" fill="#FBBF24"/>
  <path d="M256 160C203.2 160 160 203.2 160 256C160 308.8 203.2 352 256 352C308.8 352 352 308.8 352 256C352 203.2 308.8 160 256 160ZM256 320C220.8 320 192 291.2 192 256C192 220.8 220.8 192 256 192C291.2 192 320 220.8 320 256C320 291.2 291.2 320 256 320Z" fill="#FBBF24" fill-opacity="0.5"/>
  <text x="50%" y="50%" dominant-baseline="middle" text-anchor="middle" font-family="Arial, sans-serif" font-size="120" font-weight="900" fill="white">SATW</text>
  <path d="M256 40C136.7 40 40 136.7 40 256C40 375.3 136.7 472 256 472C375.3 472 472 375.3 472 256C472 136.7 375.3 40 256 40ZM256 436C156.4 436 76 355.6 76 256C76 156.4 156.4 76 256 76C355.6 76 436 156.4 436 256C436 355.6 355.6 436 256 436Z" fill="#FBBF24" fill-opacity="0.2"/>
</svg>
